<svg xmlns="http://www.w3.org/2000/svg" viewBox="0 0 289.69 292.88"><defs><style>.cls-1{fill:#fff;}.cls-2{fill:none;stroke:#fff;stroke-miterlimit:10;stroke-width:3px;}</style></defs><g id="Camada_2" data-name="Camada 2"><g id="Camada_1-2" data-name="Camada 1"><path class="cls-1" d="M176.54,158.68C198.61,170,222,181.23,217.61,204.32c-4.31,22.31-24.46,31.51-48.53,31.51-19,0-35.62-9-43.64-14.29V218.6c7.82,5.68,23.68,14.88,43.64,14.88,16.43,0,32.68-7,36.2-22.7,4.64-21.93-20.65-32.44-43.25-44.82"/><path class="cls-1" d="M197.55,166.18c0,27.6-30.33,36.79-55.77,36.79H100.29V82.62c0-9.78-2.35-14.28-12.33-14.28h-.39V66H131c25.24,0,56.55,5.09,56.55,32.68,0,20.94-19.57,28.77-37.18,30.92C173.48,130.57,197.55,142.31,197.55,166.18ZM112,129h19c32.09,0,43.44-13.11,43.44-30.33,0-17.42-11.35-30.33-43.44-30.33H112Zm72.41,37.18c0-17.22-10.37-34.83-42.66-34.83H112v69.28h29.75C174.07,200.63,184.44,183.6,184.44,166.18Z"/><path class="cls-1" d="M162.06,166c-19.36-10.59-36.75-22.56-31.69-44.22,3.72-17.62,21.33-25.64,39.72-25.64,14.88,0,28.38,5.09,41.49,14.68v2.93c-6.46-5.28-21.14-15.07-41.49-15.07-14.09,0-27.39,8-29,22.51C139,139,157.3,148.87,176.58,158.73"/><path class="cls-1" d="M124.14,285.46c-1.76,3.79-5.77,4.53-10.06,3.46a15.32,15.32,0,0,1-7.16-4.49l.13-.52a14,14,0,0,0,7.13,4.59c2.94.73,6.15.2,7.47-2.44,3.35-6.88-13.46-11.33-9.41-19.23,1.44-3,4.94-3.62,8.23-2.8a12.66,12.66,0,0,1,6.75,4.46l-.13.53a12.19,12.19,0,0,0-6.73-4.54c-2.52-.63-5.25.21-6.18,2.73C111.68,273.82,127.53,278.1,124.14,285.46Z"/><path class="cls-1" d="M141.73,292.88l-2.18-.21.21-2.26a8.87,8.87,0,0,1-6.47,1.94c-2.44-.23-5-1.7-4.81-4.35.44-4.66,8.36-5.52,12-5.47l.15-1.65c.24-3.41-1.09-5.05-4-5.32a8.48,8.48,0,0,0-5.33,1.74l-.29-.39a9.82,9.82,0,0,1,6.55-2c5.59.52,5.44,4.52,5.25,6.56ZM140.44,283c-7.71.12-9.3,2.86-9.48,4.73a3.45,3.45,0,0,0,3.42,3.75,7.66,7.66,0,0,0,5.43-1.7Z"/><path class="cls-1" d="M149.34,268.12l.27,24.69-2.16,0-.25-22.39c0-1.8-.42-2.63-2.3-2.61h-.07v-.44l3.74,0A.68.68,0,0,1,149.34,268.12Z"/><path class="cls-1" d="M172,282.25a8.89,8.89,0,1,1-9.89-7.73A8.6,8.6,0,0,1,172,282.25Zm-2.4.28c-.61-5.11-3.58-8-7.44-7.59s-6.08,4-5.46,9.15,3.61,8.05,7.48,7.58S170.25,287.65,169.63,282.53Z"/><path class="cls-1" d="M190.52,274.94l3,10.31-2.11.6-2.79-9.72c-.92-3.22-2.86-6.3-6.52-5.21-2.56.73-4.38,3.92-3.71,6.23l3.29,11.5-2.11.6-3.85-13.43c-.5-1.73-1.11-2.42-2.91-1.9h0l-.12-.41,3.6-1a.7.7,0,0,1,.94.56l.56,1.93a6.78,6.78,0,0,1,4.68-4.71C186.1,269.2,189.21,270.37,190.52,274.94Z"/><path class="cls-1" d="M120.21,15.42c1.34,4.9-3.6,8-8.12,9.23l-7.36,2L98.9,5.3C98.42,3.57,97.79,2.88,96,3.37l-.07,0L95.83,3,103.54.86C108-.36,113.83-1,115.17,3.92c1,3.72-2.08,6.06-5.11,7.29C114.21,10.27,119.05,11.18,120.21,15.42Zm-17-2.45,3.37-.92c5.69-1.56,7.07-4.44,6.24-7.49s-3.49-4.84-9.18-3.28l-3.37.92Zm14.65,3.09c-.83-3.06-3.53-5.68-9.26-4.12l-5.28,1.44,3.36,12.3L112,24.24C117.71,22.67,118.73,19.15,117.88,16.06Z"/><path class="cls-1" d="M133.09,20.54a9.41,9.41,0,0,0,5-2.1l0,.43a9.63,9.63,0,0,1-5,2.1c-5,.6-9.85-2.32-10.5-7.6s3.1-9.34,8.07-9.95c3.39-.41,6.34.86,6.67,3.58.63,5.18-7.71,6.6-12.14,7.14C126.14,18.31,129.19,21,133.09,20.54Zm-8-6.93c4.36-.53,10.24-1.4,10-6.4-.13-2.56-2-3.64-4.29-3.36-4.25.52-6.31,4.44-5.73,9.22C125.06,13.25,125.08,13.43,125.1,13.61Z"/><path class="cls-1" d="M153.77,19.89l-2.2,0,0-2.26a8.86,8.86,0,0,1-6.24,2.58c-2.45,0-5.2-1.17-5.22-3.83-.05-4.68,7.74-6.35,11.37-6.67V8.07c-.11-3.42-1.6-4.91-4.56-4.88a8.5,8.5,0,0,0-5.12,2.28l-.33-.35a9.74,9.74,0,0,1,6.31-2.63c5.62-.06,5.87,3.94,5.9,6Zm-2.3-9.66c-7.66.91-9,3.8-8.94,5.68a3.45,3.45,0,0,0,3.78,3.38A7.64,7.64,0,0,0,151.54,17Z"/><path class="cls-1" d="M174.55,5l-2,16.91-2.14-.26.36-3a6.06,6.06,0,0,1-5.93,2.62c-3.83-.46-6.45-2.73-5.89-7.45l.9-7.47c.22-1.79-.08-2.66-1.94-2.88h-.07l0-.43,3.72.45a.72.72,0,0,1,.69.88l-1.09,9.08c-.4,3.32.4,6.9,4.19,7.36A5.24,5.24,0,0,0,171,16.58l1.42-11.8Z"/><path class="cls-1" d="M186.14,23.82a7.44,7.44,0,0,1-4.83.55,3.94,3.94,0,0,1-3.1-5L181.15,7l-2.66-.64.1-.42,2.66.64,2.89-4.49.42.1-1.17,4.9,5.22,1.24-.1.42-5.22-1.24-2.84,11.9c-.25,1.05-.7,3.57,2.13,4.25a5.36,5.36,0,0,0,3.38-.34Z"/><path class="cls-1" d="M205.22,13.87,193.87,28.22c-2.57,2.92-5.61,6.18-10.71,3.87l1.11-1.9c4.85,3.05,8.14-1.14,9-2.17l.19-.2-.06-14.88c0-2.06-.22-2.78-1.81-3.34l-.07,0,.14-.41,2.79,1a1.47,1.47,0,0,1,1.13,1.57l.05,13.36,9-11.39Z"/><path class="cls-2" d="M88.12,275A136.5,136.5,0,0,1,1.5,148q0-3,.13-5.91"/><path class="cls-2" d="M219.28,28.4a136.5,136.5,0,0,1-12.45,243.45"/><path class="cls-2" d="M1.78,140.69A136.44,136.44,0,0,1,78.34,25.24"/></g></g></svg>