<svg xmlns="http://www.w3.org/2000/svg" viewBox="0 0 130.57 169.84"><defs><style>.cls-1{fill:#cd7f91;}.cls-2{fill:#722e43;}</style></defs><g id="Camada_2" data-name="Camada 2"><g id="Camada_1-2" data-name="Camada 1"><path class="cls-1" d="M89,92.69C111,104,134.42,115.24,130,138.33c-4.31,22.31-24.47,31.51-48.54,31.51-19,0-35.61-9-43.64-14.29v-2.93c7.83,5.67,23.68,14.87,43.64,14.87,16.44,0,32.68-7.05,36.21-22.7,4.64-21.93-20.65-32.44-43.26-44.81"/><path class="cls-2" d="M110,100.2C110,127.79,79.65,137,54.21,137H12.72V16.63C12.72,6.85,10.37,2.35.39,2.35H0V0H43.44C68.69,0,100,5.09,100,32.68c0,20.94-19.57,28.77-37.18,30.92C85.91,64.58,110,76.32,110,100.2ZM24.46,63h19c32.1,0,43.45-13.11,43.45-30.33,0-17.42-11.35-30.33-43.45-30.33h-19ZM96.87,100.2C96.87,83,86.5,65.36,54.21,65.36H24.46v69.28H54.21C86.5,134.64,96.87,117.61,96.87,100.2Z"/><path class="cls-1" d="M74.49,100C55.13,89.43,37.74,77.47,42.79,55.8c3.72-17.61,21.33-25.64,39.73-25.64,14.87,0,28.38,5.09,41.49,14.68v2.93c-6.46-5.28-21.14-15.06-41.49-15.06-14.09,0-27.4,8-29,22.5C51.46,73,69.73,82.88,89,92.74"/></g></g></svg>